<svg xmlns="http://www.w3.org/2000/svg" xmlns:xlink="http://www.w3.org/1999/xlink" viewBox="0 0 123.167 73.167" fill="#fff" fill-rule="evenodd" stroke="#000" stroke-linecap="round" stroke-linejoin="round"><use xlink:href="#A" x="2.083" y="2.083"/><symbol id="A" overflow="visible"><g stroke="none" fill-rule="nonzero"><path d="M15.858 68.783H12.45c-1.31-.001-2.372-1.063-2.373-2.373V2.375C10.078 1.065 11.14.003 12.45.002h3.408c1.31.001 2.372 1.063 2.373 2.373v64.037c-.001 1.31-1.063 2.372-2.373 2.373zm90.71 0h-3.408c-1.31-.001-2.372-1.063-2.373-2.373V2.375c.001-1.31 1.063-2.372 2.373-2.373h3.408c1.31.001 2.372 1.063 2.373 2.373v64.037c-.001 1.31-1.063 2.372-2.373 2.373z"/><path d="M0 9.715h118.25v14.86H0z"/><path d="M0 9.715h23.646v14.86H0z" fill="#ea5a47"/><path d="M23.652 9.715h23.646v14.86H23.652z"/><use xlink:href="#C" fill="#ea5a47"/><path d="M70.854 9.715H94.5v14.86H70.854z"/><path d="M94.504 9.715h23.646v14.86H94.504z" fill="#ea5a47"/><path d="M0 38.881h118.25v14.86H0z"/><path d="M0 38.881h23.646v14.86H0z" fill="#ea5a47"/><path d="M23.652 38.881h23.646v14.86H23.652z"/><use xlink:href="#C" y="29.166" fill="#ea5a47"/><path d="M70.854 38.881H94.5v14.86H70.854z"/><path d="M94.504 38.881h23.646v14.86H94.504z" fill="#ea5a47"/></g><g fill="none" stroke-width="4.167"><path d="M10.075 37.763V25.408m8.154 28.333V66.45c-.001 1.31-1.063 2.372-2.373 2.373h-3.408c-1.31-.001-2.372-1.063-2.373-2.373V54.575m8.154-29.167v12.375M10.075 6.915V2.373C10.076 1.063 11.138.001 12.448 0h3.408c1.31.001 2.372 1.063 2.373 2.373v4.375m82.556 32.133V25.408m8.156 29.167v11.837c-.001 1.31-1.063 2.372-2.373 2.373h-3.408c-1.31-.001-2.372-1.063-2.373-2.373V54.575m8.154-29.167v11.638m-8.156-28.471V2.373c.001-1.31 1.063-2.372 2.373-2.373h3.408c1.31.001 2.372 1.063 2.373 2.373v6.042M0 9.715h118.25v14.86H0z"/><use xlink:href="#D"/><use xlink:href="#C"/><path d="M70.854 9.715H94.5v14.86H70.854zm23.65 0h23.646v14.86H94.504zM0 38.882h118.25v14.86H0z"/><use xlink:href="#D" y="29.166"/><use xlink:href="#C" y="29.166"/><path d="M70.854 38.881H94.5v14.86H70.854z"/><path d="M108.942 38.881h9.208v14.86H94.504V38.9h14.438"/></g></symbol><defs ><path id="C" d="M47.208 9.715h23.646v14.86H47.208z"/><path id="D" d="M0 9.715h23.646v14.86H0zm23.652 0h23.646v14.86H23.652z"/></defs></svg>